<svg width="162" height="45" viewBox="0 0 162 45" fill="none" xmlns="http://www.w3.org/2000/svg">
<g clip-path="url(#clip0_539_86)">
<rect width="162" height="45" fill="white"/>
<path fill-rule="evenodd" clip-rule="evenodd" d="M34.6064 4.95898V1.5L35.4951 0H37.7168L38.6064 1.5V41.5H34.6064V38.1475L26.5859 44.8643L23.4238 43.5996L34.6064 34.2344V33.8311L27.626 31.1641L16.2188 40.7188L13.0566 39.4541L34.6064 21.4043V21.001L27.625 18.334L5.85059 36.5713L2.68945 35.3076L34.6064 8.57422V8.1709L21.5693 3.19043L24.2686 1.00977L34.6064 4.95898ZM30.2598 28.958L34.6064 30.6191V25.3174L30.2598 28.958ZM30.2588 16.1279L34.6064 17.7891V12.4873L30.2588 16.1279Z" fill="url(#paint0_radial_539_86)"/>
<path d="M23.8408 26.5068L21.207 28.7129L17.1055 27.1455L19.7393 24.9395L23.8408 26.5068Z" fill="url(#paint1_radial_539_86)"/>
<path d="M16.5303 23.7139L13.8965 25.9199L0 20.6104L2.7002 18.4297L16.5303 23.7139Z" fill="url(#paint2_radial_539_86)"/>
<path d="M23.8408 13.6768L21.207 15.8828L10.7842 11.9004L13.4844 9.71973L23.8408 13.6768Z" fill="url(#paint3_radial_539_86)"/>
<path d="M115.16 18.12H116.38L118.16 19.18L119.18 18.12H123.58L124.84 19.98L123.2 21.1L122.54 20.08H120.04L119.32 20.86V27.02H122.14V29H115.16V27.02H117.18V21.04L116.54 20.08H115.16V18.12ZM128.852 17.94H135.392L136.752 19.94V29H134.572V28.22L133.292 29H128.992L127.232 26.38V25.4L130.412 22.08H134.572V19.92H128.852V17.94ZM129.452 26.02L129.972 26.98H134.532V24.12H131.232L129.452 25.94V26.02ZM140.124 17.74H143.304L145.024 20.3V27.06H148.664V29H139.304V27.06H142.944V20.64L142.284 19.68H140.124V17.74ZM142.724 15.38H145.244V12.86H142.724V15.38ZM151.537 14.04H154.517L156.337 15.1V26.08L156.977 27.02H160.397V29H155.937L154.197 26.44V16.02H151.537V14.04Z" fill="#50A074"/>
<path d="M57.24 18.02H62.98L64.24 19.86L62.86 21.28L61.96 19.96H58.14L57.7 20.34V21.46L58.32 22.38H63.02L64.52 24.6V27.32L63 29H56.48L55.48 27.46L56.86 26.06L57.5 27.02H62.1L62.36 26.7V25L61.92 24.36H57.22L55.56 21.86V19.66L57.24 18.02ZM70.6922 18.12H74.9722L76.6722 20.7V27.18L74.9122 29H70.7322L69.4522 28.26V33.32H67.3122V18.12H69.4522V18.88L70.6922 18.12ZM69.4522 26.06L70.1122 27.02H74.0922L74.5322 26.56V21.08L73.8922 20.1H69.9122L69.4522 20.56V26.06ZM79.5444 14.04H82.5244L84.3444 15.1V26.08L84.9844 27.02H88.4044V29H83.9444L82.2044 26.44V16.02H79.5444V14.04ZM92.1166 17.74H95.2966L97.0166 20.3V27.06H100.657V29H91.2966V27.06H94.9366V20.64L94.2766 19.68H92.1166V17.74ZM94.7166 15.38H97.2366V12.86H94.7166V15.38ZM105.249 14.04H107.389V18.1H110.629V20.08H107.389V26.06L108.029 27H109.809L111.169 25.66L112.289 27.3L110.709 29H106.969L105.249 26.46V20.08H103.649V18.1H105.249V14.04Z" fill="url(#paint4_linear_539_86)"/>
<path fill-rule="evenodd" clip-rule="evenodd" d="M34.6091 28.9541H34.6062V25.3174L30.2644 28.9531L27.1033 27.6963V27.6875L34.6062 21.4043V21.001L27.6247 18.334L24.5225 17.0198L34.6062 8.57422V8.55566H34.6091V28.9541ZM30.2585 16.1279L34.6062 17.7891V12.4873L30.2585 16.1279Z" fill="url(#paint5_linear_539_86)"/>
<path d="M34.6173 30.6289V33.8359L27.6064 31.1748L16.2051 40.7334L13.0342 39.4473L27.0947 27.6943L34.6173 30.6289Z" fill="#50A074"/>
</g>
<defs>
<radialGradient id="paint0_radial_539_86" cx="0" cy="0" r="1" gradientUnits="userSpaceOnUse" gradientTransform="translate(2 25) rotate(-3.7957) scale(37.0994 21.5473)">
<stop offset="0.481661" stop-color="#A87A57"/>
<stop offset="0.897656" stop-color="#7B4923"/>
</radialGradient>
<radialGradient id="paint1_radial_539_86" cx="0" cy="0" r="1" gradientUnits="userSpaceOnUse" gradientTransform="translate(2 25) rotate(-3.7957) scale(37.0994 21.5473)">
<stop offset="0.481661" stop-color="#A87A57"/>
<stop offset="0.897656" stop-color="#7B4923"/>
</radialGradient>
<radialGradient id="paint2_radial_539_86" cx="0" cy="0" r="1" gradientUnits="userSpaceOnUse" gradientTransform="translate(2 25) rotate(-3.7957) scale(37.0994 21.5473)">
<stop offset="0.481661" stop-color="#A87A57"/>
<stop offset="0.897656" stop-color="#7B4923"/>
</radialGradient>
<radialGradient id="paint3_radial_539_86" cx="0" cy="0" r="1" gradientUnits="userSpaceOnUse" gradientTransform="translate(2 25) rotate(-3.7957) scale(37.0994 21.5473)">
<stop offset="0.481661" stop-color="#A87A57"/>
<stop offset="0.897656" stop-color="#7B4923"/>
</radialGradient>
<linearGradient id="paint4_linear_539_86" x1="58" y1="24.5" x2="107" y2="23.5" gradientUnits="userSpaceOnUse">
<stop stop-color="#C7C764"/>
<stop offset="1" stop-color="#827E2E"/>
</linearGradient>
<linearGradient id="paint5_linear_539_86" x1="34" y1="11" x2="30.8564" y2="28.9541" gradientUnits="userSpaceOnUse">
<stop stop-color="#C7C764"/>
<stop offset="1" stop-color="#827E2E"/>
</linearGradient>
<clipPath id="clip0_539_86">
<rect width="162" height="45" fill="white"/>
</clipPath>
</defs>
</svg>
