<svg width="505" height="80" viewBox="0 0 505 80" fill="none" xmlns="http://www.w3.org/2000/svg">
<rect width="504.724" height="79.9898" transform="translate(0 0.0102234)" fill="white"/>
<path d="M97.3847 31.2454H110.544L113.608 35.7068L110.093 39.357L107.93 36.2025H99.638L98.8268 36.9235V38.9965L100.089 40.8442H110.634L114.149 46.0717V52.4258L110.589 56.3915H95.5822L93.1487 52.606L96.6637 49.0009L98.241 51.2992H108.245L108.696 50.8035V47.1532L107.84 45.8914H97.2946L93.4191 40.0781V35.121L97.3847 31.2454ZM127.651 31.5609H137.565L141.531 37.5995V52.1103L137.385 56.3915H127.741L125.262 54.9494V66.1254H119.809V31.5609H125.262V33.048L127.651 31.5609ZM125.262 49.3614L126.569 51.3442H135.267L136.078 50.488V38.636L134.771 36.6532H126.118L125.262 37.5094V49.3614ZM147.687 22.6831H154.401L158.683 25.2067V49.4065L159.989 51.3442H167.65V56.3915H157.331L153.275 50.3979V27.7304H147.687V22.6831ZM175.744 30.7046H183.315L187.326 36.6532V51.4794H195.573V56.3915H173.852V51.4794H182.099V37.5995L180.747 35.6167H175.744V30.7046ZM181.558 25.7475H187.867V19.4385H181.558V25.7475ZM205.244 22.6831H210.697V31.5158H217.997V36.6081H210.697V49.3614L211.959 51.2992H215.744L218.944 48.0996L221.828 52.2906L217.997 56.3915H209.3L205.244 50.4429V36.6081H201.639V31.5158H205.244V22.6831ZM227.489 31.5609H230.598L234.519 33.8591L236.727 31.5609H246.956L250.021 36.1574L245.83 38.9965L244.298 36.6081H238.89L237.448 38.1403V51.3442H243.847V56.3915H227.489V51.3442H232.04V38.5459L230.733 36.6081H227.489V31.5609ZM258.475 31.4707H273.527L276.682 36.1124V56.3915H271.229V54.9043L268.75 56.3915H258.926L254.87 50.3528V47.9644L262.126 40.3935H271.229V36.4729H258.475V31.4707ZM260.503 49.3614L261.36 51.2992H271.048V45.5309H264.154L260.503 49.2713V49.3614ZM283.829 30.7046H291.4L295.411 36.6532V51.4794H303.658V56.3915H281.937V51.4794H290.183V37.5995L288.831 35.6167H283.829V30.7046ZM289.643 25.7475H295.952V19.4385H289.643V25.7475ZM309.814 22.6831H316.529L320.81 25.2067V49.4065L322.117 51.3442H329.778V56.3915H319.458L315.402 50.3979V27.7304H309.814V22.6831Z" fill="#01411E"/>
<path fill-rule="evenodd" clip-rule="evenodd" d="M59.6158 15.5794V13.096H64.6158V69.9036H59.6158V67.4193L48.6266 73.7991L43.6481 70.9085L59.566 61.6663L47.1793 54.4739L31.2614 63.7161L26.2828 60.8255L59.566 41.5003L47.1783 34.3069L34.7916 41.4993L42.2008 45.8011L37.2213 48.6917L29.8131 44.39L13.8951 53.6331L8.91663 50.7425L59.566 21.3333L43.649 12.0911L48.6276 9.19952L59.6158 15.5794ZM52.1588 51.5823L59.6158 55.9124V47.2532L52.1588 51.5823ZM52.1569 31.4163L59.6158 35.7464V27.0862L52.1569 31.4163Z" fill="#01411E"/>
<path d="M24.8336 35.7171L19.8551 38.6077L8.9176 32.2571L13.8961 29.3665L24.8336 35.7171Z" fill="#01411E"/>
<path d="M42.1998 25.6341L37.2203 28.5257L26.2828 22.1741L31.2623 19.2835L42.1998 25.6341Z" fill="#01411E"/>
</svg>
