<svg width="24" height="24" viewBox="0 0 24 24" fill="none" xmlns="http://www.w3.org/2000/svg">
<circle cx="11.5051" cy="11.5051" r="11.5051" fill="url(#paint0_radial_633_100)"/>
<mask id="mask0_633_100" style="mask-type:alpha" maskUnits="userSpaceOnUse" x="0" y="0" width="24" height="24">
<circle cx="11.5051" cy="11.5051" r="11.5051" fill="url(#paint1_radial_633_100)"/>
</mask>
<g mask="url(#mask0_633_100)">
<g filter="url(#filter0_d_633_100)">
<path d="M13.9115 5.11337C15.988 5.11337 17.6713 6.79671 17.6713 8.87321V21.7671L6.39178 15.9777V8.87321C6.39178 6.79671 8.07512 5.11337 10.1516 5.11337H13.9115Z" fill="white"/>
<path d="M13.9115 5.11337C15.988 5.11337 17.6713 6.79671 17.6713 8.87321V21.7671L6.39178 15.9777V8.87321C6.39178 6.79671 8.07512 5.11337 10.1516 5.11337H13.9115Z" fill="url(#paint2_linear_633_100)"/>
</g>
<g filter="url(#filter1_d_633_100)">
<path d="M17.6713 21.7671V25.4165H6.39178V15.9777L17.6713 21.7671Z" fill="url(#paint3_linear_633_100)"/>
</g>
<path d="M3.38391 11.2795L6.39178 9.02362V13.5354L3.38391 11.2795Z" fill="black"/>
<path d="M3.38391 11.2795L6.39178 9.02362V13.5354L3.38391 11.2795Z" fill="url(#paint4_linear_633_100)"/>
<circle cx="10.0357" cy="9.89862" r="1.45267" fill="url(#paint5_radial_633_100)"/>
</g>
<defs>
<filter id="filter0_d_633_100" x="5.18623" y="5.11337" width="13.6907" height="19.075" filterUnits="userSpaceOnUse" color-interpolation-filters="sRGB">
<feFlood flood-opacity="0" result="BackgroundImageFix"/>
<feColorMatrix in="SourceAlpha" type="matrix" values="0 0 0 0 0 0 0 0 0 0 0 0 0 0 0 0 0 0 127 0" result="hardAlpha"/>
<feOffset dy="1.21569"/>
<feGaussianBlur stdDeviation="0.602778"/>
<feComposite in2="hardAlpha" operator="out"/>
<feColorMatrix type="matrix" values="0 0 0 0 0 0 0 0 0 0 0 0 0 0 0 0 0 0 0.25 0"/>
<feBlend mode="normal" in2="BackgroundImageFix" result="effect1_dropShadow_633_100"/>
<feBlend mode="normal" in="SourceGraphic" in2="effect1_dropShadow_633_100" result="shape"/>
</filter>
<filter id="filter1_d_633_100" x="5.18623" y="15.9777" width="13.6907" height="11.8601" filterUnits="userSpaceOnUse" color-interpolation-filters="sRGB">
<feFlood flood-opacity="0" result="BackgroundImageFix"/>
<feColorMatrix in="SourceAlpha" type="matrix" values="0 0 0 0 0 0 0 0 0 0 0 0 0 0 0 0 0 0 127 0" result="hardAlpha"/>
<feOffset dy="1.21569"/>
<feGaussianBlur stdDeviation="0.602778"/>
<feComposite in2="hardAlpha" operator="out"/>
<feColorMatrix type="matrix" values="0 0 0 0 0 0 0 0 0 0 0 0 0 0 0 0 0 0 0.25 0"/>
<feBlend mode="normal" in2="BackgroundImageFix" result="effect1_dropShadow_633_100"/>
<feBlend mode="normal" in="SourceGraphic" in2="effect1_dropShadow_633_100" result="shape"/>
</filter>
<radialGradient id="paint0_radial_633_100" cx="0" cy="0" r="1" gradientUnits="userSpaceOnUse" gradientTransform="translate(11.5051) rotate(90) scale(23.0102 36.971)">
<stop offset="0.433268" stop-color="#FF8400"/>
<stop offset="1" stop-color="#D64B00"/>
</radialGradient>
<radialGradient id="paint1_radial_633_100" cx="0" cy="0" r="1" gradientUnits="userSpaceOnUse" gradientTransform="translate(11.5051) rotate(90) scale(23.0102 36.971)">
<stop offset="0.433268" stop-color="#FF8400"/>
<stop offset="1" stop-color="#D64B00"/>
</radialGradient>
<linearGradient id="paint2_linear_633_100" x1="7.91281" y1="7.93723" x2="19.6655" y2="23.9226" gradientUnits="userSpaceOnUse">
<stop offset="0.296855" stop-color="white"/>
<stop offset="1" stop-color="#D2D2D2"/>
</linearGradient>
<linearGradient id="paint3_linear_633_100" x1="16.8031" y1="22.7094" x2="6.39179" y2="17.2462" gradientUnits="userSpaceOnUse">
<stop/>
<stop offset="1" stop-color="#4A4A4A"/>
</linearGradient>
<linearGradient id="paint4_linear_633_100" x1="6.16027" y1="12.2414" x2="2.89892" y2="11.2867" gradientUnits="userSpaceOnUse">
<stop/>
<stop offset="1" stop-color="#4A4A4A"/>
</linearGradient>
<radialGradient id="paint5_radial_633_100" cx="0" cy="0" r="1" gradientUnits="userSpaceOnUse" gradientTransform="translate(8.58959 9.7243) rotate(12.2788) scale(6.54137)">
<stop stop-color="#666666"/>
<stop offset="0.389802"/>
</radialGradient>
</defs>
</svg>
