<svg xmlns="http://www.w3.org/2000/svg" version="1.1" xmlns:xlink="http://www.w3.org/1999/xlink" width="513" height="513"><svg width="513" height="513" viewBox="0 0 513 513" fill="none" xmlns="http://www.w3.org/2000/svg">
<path fill-rule="evenodd" clip-rule="evenodd" d="M436.354 52.4058V32.8443H475.738V480.314H436.354V460.744L349.792 510.998L310.577 488.229L435.962 415.429L338.392 358.775L213.008 431.575L173.792 408.806L435.962 256.583L338.385 199.921L240.815 256.575L299.177 290.46L259.954 313.229L201.6 279.344L76.2154 352.152L37 329.383L435.962 97.7289L310.585 24.9289L349.8 2.15198L436.354 52.4058ZM377.615 335.998L436.354 370.106V301.898L377.615 335.998ZM377.6 177.152L436.354 211.26V143.044L377.6 177.152Z" fill="#01411E"></path>
<path d="M162.377 211.029L123.162 233.798L37.0077 183.775L76.2231 161.006L162.377 211.029Z" fill="#01411E"></path>
<path d="M299.169 131.606L259.946 154.383L173.792 104.352L213.015 81.5827L299.169 131.606Z" fill="#01411E"></path>
</svg><style>@media (prefers-color-scheme: light) { :root { filter: none; } }
@media (prefers-color-scheme: dark) { :root { filter: none; } }
</style></svg>